<svg width="31" height="30" viewBox="0 0 31 30" fill="none" xmlns="http://www.w3.org/2000/svg">
<path d="M27.1574 5.588C27.1508 5.17817 27.0374 4.77717 26.8282 4.42469C26.6191 4.07221 26.3214 3.78049 25.9648 3.57843C25.6083 3.37635 25.2051 3.27093 24.7951 3.2726C24.3854 3.2743 23.983 3.383 23.6279 3.58799L13.628 9.58799C12.954 9.97596 12.4271 10.5757 12.129 11.2939C11.8309 12.0122 11.7783 12.8088 11.9796 13.56C12.1808 14.3112 12.6245 14.9749 13.2417 15.448C13.8589 15.9211 14.6151 16.1771 15.3927 16.1762C16.3339 16.1762 17.1574 15.8233 17.7457 15.235L26.3339 7.35271C26.8044 6.88211 27.1574 6.29388 27.1574 5.588Z" stroke="white" stroke-width="2.11765" stroke-linecap="round" stroke-linejoin="round"/>
<path d="M27.1563 15C27.1563 18.1202 25.9168 21.1126 23.7105 23.3188C21.5043 25.5252 18.5118 26.7648 15.3916 26.7648C12.2715 26.7648 9.27906 25.5252 7.07275 23.3188C4.86643 21.1126 3.62695 18.1202 3.62695 15" stroke="white" stroke-width="2.11765" stroke-linecap="round" stroke-linejoin="round"/>
<path d="M14.3328 9.11731C8.33282 9.35262 3.62695 11.9408 3.62695 14.9997C3.62695 18.2938 8.92107 20.8821 15.3916 20.8821C21.8622 20.8821 27.1563 18.2938 27.1563 14.9997C27.1563 13.235 25.5093 11.5879 22.921 10.5291" stroke="white" stroke-width="2.11765" stroke-linecap="round" stroke-linejoin="round"/>
</svg>
