<svg xmlns="http://www.w3.org/2000/svg" version="1.1" xmlns:xlink="http://www.w3.org/1999/xlink" xmlns:svgjs="http://svgjs.dev/svgjs" width="32" height="32"><svg version="1.1" xmlns="http://www.w3.org/2000/svg" width="32" height="32">
<path d="M0 0 C10.56 0 21.12 0 32 0 C32 10.56 32 21.12 32 32 C21.44 32 10.88 32 0 32 C0 21.44 0 10.88 0 0 Z " fill="#FCFDFD" transform="translate(0,0)"></path>
<path d="M0 0 C3.4375 0.5625 3.4375 0.5625 5.625 2 C8.37312033 5.88527356 7.98293295 9.48388317 7.875 14.125 C7.88208984 14.98802734 7.88917969 15.85105469 7.89648438 16.74023438 C7.83255791 23.06895426 7.83255791 23.06895426 6.04296875 25.3046875 C3.94808622 26.94593366 2.64061611 26.99554702 0 27 C-1.14275391 27.02900391 -1.14275391 27.02900391 -2.30859375 27.05859375 C-5.57705616 26.33919215 -6.64198664 25.30609052 -8.5625 22.5625 C-8.99056075 19.58969191 -9.16801118 17.08771124 -9.125 14.125 C-9.14884766 13.37412109 -9.17269531 12.62324219 -9.19726562 11.84960938 C-9.18619372 7.65335763 -8.89499911 5.9938502 -6.25 2.5625 C-3.5625 0.5625 -3.5625 0.5625 0 0 Z " fill="#C9E2E1" transform="translate(16.5625,2.4375)"></path>
<path d="M0 0 C2.64 0 5.28 0 8 0 C8 4.29 8 8.58 8 13 C5.03 12.505 5.03 12.505 2 12 C-0.13586678 8.79619983 -0.23132175 7.98060033 -0.125 4.3125 C-0.10695313 3.50425781 -0.08890625 2.69601563 -0.0703125 1.86328125 C-0.04710937 1.24839844 -0.02390625 0.63351563 0 0 Z " fill="#5B9F3E" transform="translate(8,16)"></path>
<path d="M0 0 C2.31 0 4.62 0 7 0 C7.08121924 1.60332791 7.13929134 3.20784026 7.1875 4.8125 C7.22230469 5.70582031 7.25710937 6.59914063 7.29296875 7.51953125 C7 10 7 10 5.73828125 11.82421875 C4 13 4 13 0 13 C0 8.71 0 4.42 0 0 Z " fill="#1896C7" transform="translate(17,16)"></path>
<path d="M0 0 C0.763125 0.0825 1.52625 0.165 2.3125 0.25 C2.4375 7.875 2.4375 7.875 1.3125 11.25 C-0.9975 11.25 -3.3075 11.25 -5.6875 11.25 C-6.04858597 4.99117647 -6.04858597 4.99117647 -4.5 1.8125 C-2.6875 0.25 -2.6875 0.25 0 0 Z " fill="#9BBB52" transform="translate(13.6875,3.75)"></path>
<path d="M0 0 C2.475 0.99 2.475 0.99 5 2 C5.33 1.34 5.66 0.68 6 0 C7 1 7 1 7.09765625 2.84765625 C7.06510417 4.8984375 7.03255208 6.94921875 7 9 C5.02 9 3.04 9 1 9 C-0.4783226 6.04335481 -0.06032783 3.25770263 0 0 Z " fill="#26C0DD" transform="translate(17,6)"></path>
<path d="M0 0 C0.66 0 1.32 0 2 0 C2.0825 1.27875 2.165 2.5575 2.25 3.875 C2.45869931 6.05333418 2.45869931 6.05333418 3 8 C4.92064793 9.5899433 4.92064793 9.5899433 7 10 C7 10.99 7 11.98 7 13 C4.625 12.6875 4.625 12.6875 2 12 C-0.13586678 8.79619983 -0.23132175 7.98060033 -0.125 4.3125 C-0.10695313 3.50425781 -0.08890625 2.69601563 -0.0703125 1.86328125 C-0.04710937 1.24839844 -0.02390625 0.63351563 0 0 Z " fill="#478C44" transform="translate(8,16)"></path>
<path d="M0 0 C3.375 -0.125 3.375 -0.125 7 0 C9 2 9 2 9 5 C6.525 4.01 6.525 4.01 4 3 C4 4.98 4 6.96 4 9 C3.67 9 3.34 9 3 9 C3 6.36 3 3.72 3 1 C2.01 0.67 1.02 0.34 0 0 Z " fill="#91E0E4" transform="translate(13,3)"></path>
<path d="M0 0 C-0.33 1.65 -0.66 3.3 -1 5 C-2.65 5.33 -4.3 5.66 -6 6 C-6 4.68 -6 3.36 -6 2 C-2.25 0 -2.25 0 0 0 Z " fill="#0E5196" transform="translate(23,23)"></path>
<path d="M0 0 C1.2065625 0.0309375 1.2065625 0.0309375 2.4375 0.0625 C2.4375 2.7025 2.4375 5.3425 2.4375 8.0625 C2.1075 8.0625 1.7775 8.0625 1.4375 8.0625 C1.1075 6.4125 0.7775 4.7625 0.4375 3.0625 C-0.8825 3.3925 -2.2025 3.7225 -3.5625 4.0625 C-3.5625 0.08689024 -3.5625 0.08689024 0 0 Z " fill="#BDCF80" transform="translate(13.5625,3.9375)"></path>
<path d="M0 0 C1.98 0 3.96 0 6 0 C6 0.99 6 1.98 6 3 C3.69 3 1.38 3 -1 3 C-0.67 2.01 -0.34 1.02 0 0 Z " fill="#A1C388" transform="translate(9,12)"></path>
<path d="M0 0 C2.31 0 4.62 0 7 0 C7 0.99 7 1.98 7 3 C5.02 3 3.04 3 1 3 C0.67 2.01 0.34 1.02 0 0 Z " fill="#7AC6DC" transform="translate(17,12)"></path>
</svg><style>@media (prefers-color-scheme: light) { :root { filter: none; } }
@media (prefers-color-scheme: dark) { :root { filter: none; } }
</style></svg>