<svg width="117" height="243" viewBox="0 0 117 243" fill="none" xmlns="http://www.w3.org/2000/svg">
<g clip-path="url(#clip0_217_1278)">
<path d="M4.60511 9.56746C7.07724 9.56746 9.08131 7.55808 9.08131 5.07938C9.08131 2.60069 7.07724 0.591309 4.60511 0.591309C2.13297 0.591309 0.128906 2.60069 0.128906 5.07938C0.128906 7.55808 2.13297 9.56746 4.60511 9.56746Z" fill="#F6DECD"/>
<path d="M22.5094 9.56746C24.9815 9.56746 26.9856 7.55808 26.9856 5.07938C26.9856 2.60069 24.9815 0.591309 22.5094 0.591309C20.0373 0.591309 18.0332 2.60069 18.0332 5.07938C18.0332 7.55808 20.0373 9.56746 22.5094 9.56746Z" fill="#F6DECD"/>
<path d="M40.4147 9.56746C42.8868 9.56746 44.8909 7.55808 44.8909 5.07938C44.8909 2.60069 42.8868 0.591309 40.4147 0.591309C37.9425 0.591309 35.9385 2.60069 35.9385 5.07938C35.9385 7.55808 37.9425 9.56746 40.4147 9.56746Z" fill="#F6DECD"/>
<path d="M58.319 9.56746C60.7911 9.56746 62.7952 7.55808 62.7952 5.07938C62.7952 2.60069 60.7911 0.591309 58.319 0.591309C55.8468 0.591309 53.8428 2.60069 53.8428 5.07938C53.8428 7.55808 55.8468 9.56746 58.319 9.56746Z" fill="#F6DECD"/>
<path d="M76.2242 9.56746C78.6964 9.56746 80.7005 7.55808 80.7005 5.07938C80.7005 2.60069 78.6964 0.591309 76.2242 0.591309C73.7521 0.591309 71.748 2.60069 71.748 5.07938C71.748 7.55808 73.7521 9.56746 76.2242 9.56746Z" fill="#F6DECD"/>
<path d="M94.1285 9.56746C96.6007 9.56746 98.6047 7.55808 98.6047 5.07938C98.6047 2.60069 96.6007 0.591309 94.1285 0.591309C91.6564 0.591309 89.6523 2.60069 89.6523 5.07938C89.6523 7.55808 91.6564 9.56746 94.1285 9.56746Z" fill="#F6DECD"/>
<path d="M112.034 9.56746C114.506 9.56746 116.51 7.55808 116.51 5.07938C116.51 2.60069 114.506 0.591309 112.034 0.591309C109.562 0.591309 107.558 2.60069 107.558 5.07938C107.558 7.55808 109.562 9.56746 112.034 9.56746Z" fill="#F6DECD"/>
<path d="M4.60511 27.5196C7.07724 27.5196 9.08131 25.5102 9.08131 23.0315C9.08131 20.5528 7.07724 18.5435 4.60511 18.5435C2.13297 18.5435 0.128906 20.5528 0.128906 23.0315C0.128906 25.5102 2.13297 27.5196 4.60511 27.5196Z" fill="#F6DECD"/>
<path d="M22.5094 27.5196C24.9815 27.5196 26.9856 25.5102 26.9856 23.0315C26.9856 20.5528 24.9815 18.5435 22.5094 18.5435C20.0373 18.5435 18.0332 20.5528 18.0332 23.0315C18.0332 25.5102 20.0373 27.5196 22.5094 27.5196Z" fill="#F6DECD"/>
<path d="M40.4147 27.5196C42.8868 27.5196 44.8909 25.5102 44.8909 23.0315C44.8909 20.5528 42.8868 18.5435 40.4147 18.5435C37.9425 18.5435 35.9385 20.5528 35.9385 23.0315C35.9385 25.5102 37.9425 27.5196 40.4147 27.5196Z" fill="#F6DECD"/>
<path d="M58.319 27.5196C60.7911 27.5196 62.7952 25.5102 62.7952 23.0315C62.7952 20.5528 60.7911 18.5435 58.319 18.5435C55.8468 18.5435 53.8428 20.5528 53.8428 23.0315C53.8428 25.5102 55.8468 27.5196 58.319 27.5196Z" fill="#F6DECD"/>
<path d="M76.2242 27.5196C78.6964 27.5196 80.7005 25.5102 80.7005 23.0315C80.7005 20.5528 78.6964 18.5435 76.2242 18.5435C73.7521 18.5435 71.748 20.5528 71.748 23.0315C71.748 25.5102 73.7521 27.5196 76.2242 27.5196Z" fill="#F6DECD"/>
<path d="M94.1285 27.5196C96.6007 27.5196 98.6047 25.5102 98.6047 23.0315C98.6047 20.5528 96.6007 18.5435 94.1285 18.5435C91.6564 18.5435 89.6523 20.5528 89.6523 23.0315C89.6523 25.5102 91.6564 27.5196 94.1285 27.5196Z" fill="#F6DECD"/>
<path d="M112.034 27.5196C114.506 27.5196 116.51 25.5102 116.51 23.0315C116.51 20.5528 114.506 18.5435 112.034 18.5435C109.562 18.5435 107.558 20.5528 107.558 23.0315C107.558 25.5102 109.562 27.5196 112.034 27.5196Z" fill="#F6DECD"/>
<path d="M4.60511 45.472C7.07724 45.472 9.08131 43.4626 9.08131 40.9839C9.08131 38.5052 7.07724 36.4958 4.60511 36.4958C2.13297 36.4958 0.128906 38.5052 0.128906 40.9839C0.128906 43.4626 2.13297 45.472 4.60511 45.472Z" fill="#F6DECD"/>
<path d="M22.5094 45.472C24.9815 45.472 26.9856 43.4626 26.9856 40.9839C26.9856 38.5052 24.9815 36.4958 22.5094 36.4958C20.0373 36.4958 18.0332 38.5052 18.0332 40.9839C18.0332 43.4626 20.0373 45.472 22.5094 45.472Z" fill="#F6DECD"/>
<path d="M40.4147 45.472C42.8868 45.472 44.8909 43.4626 44.8909 40.9839C44.8909 38.5052 42.8868 36.4958 40.4147 36.4958C37.9425 36.4958 35.9385 38.5052 35.9385 40.9839C35.9385 43.4626 37.9425 45.472 40.4147 45.472Z" fill="#F6DECD"/>
<path d="M58.319 45.472C60.7911 45.472 62.7952 43.4626 62.7952 40.9839C62.7952 38.5052 60.7911 36.4958 58.319 36.4958C55.8468 36.4958 53.8428 38.5052 53.8428 40.9839C53.8428 43.4626 55.8468 45.472 58.319 45.472Z" fill="#F6DECD"/>
<path d="M76.2242 45.472C78.6964 45.472 80.7005 43.4626 80.7005 40.9839C80.7005 38.5052 78.6964 36.4958 76.2242 36.4958C73.7521 36.4958 71.748 38.5052 71.748 40.9839C71.748 43.4626 73.7521 45.472 76.2242 45.472Z" fill="#F6DECD"/>
<path d="M94.1285 45.472C96.6007 45.472 98.6047 43.4626 98.6047 40.9839C98.6047 38.5052 96.6007 36.4958 94.1285 36.4958C91.6564 36.4958 89.6523 38.5052 89.6523 40.9839C89.6523 43.4626 91.6564 45.472 94.1285 45.472Z" fill="#F6DECD"/>
<path d="M112.034 45.472C114.506 45.472 116.51 43.4626 116.51 40.9839C116.51 38.5052 114.506 36.4958 112.034 36.4958C109.562 36.4958 107.558 38.5052 107.558 40.9839C107.558 43.4626 109.562 45.472 112.034 45.472Z" fill="#F6DECD"/>
<path d="M4.60511 63.4241C7.07724 63.4241 9.08131 61.4148 9.08131 58.9361C9.08131 56.4574 7.07724 54.448 4.60511 54.448C2.13297 54.448 0.128906 56.4574 0.128906 58.9361C0.128906 61.4148 2.13297 63.4241 4.60511 63.4241Z" fill="#F6DECD"/>
<path d="M22.5094 63.4241C24.9815 63.4241 26.9856 61.4148 26.9856 58.9361C26.9856 56.4574 24.9815 54.448 22.5094 54.448C20.0373 54.448 18.0332 56.4574 18.0332 58.9361C18.0332 61.4148 20.0373 63.4241 22.5094 63.4241Z" fill="#F6DECD"/>
<path d="M40.4147 63.4241C42.8868 63.4241 44.8909 61.4148 44.8909 58.9361C44.8909 56.4574 42.8868 54.448 40.4147 54.448C37.9425 54.448 35.9385 56.4574 35.9385 58.9361C35.9385 61.4148 37.9425 63.4241 40.4147 63.4241Z" fill="#F6DECD"/>
<path d="M58.319 63.4241C60.7911 63.4241 62.7952 61.4148 62.7952 58.9361C62.7952 56.4574 60.7911 54.448 58.319 54.448C55.8468 54.448 53.8428 56.4574 53.8428 58.9361C53.8428 61.4148 55.8468 63.4241 58.319 63.4241Z" fill="#F6DECD"/>
<path d="M76.2242 63.4241C78.6964 63.4241 80.7005 61.4148 80.7005 58.9361C80.7005 56.4574 78.6964 54.448 76.2242 54.448C73.7521 54.448 71.748 56.4574 71.748 58.9361C71.748 61.4148 73.7521 63.4241 76.2242 63.4241Z" fill="#F6DECD"/>
<path d="M94.1285 63.4241C96.6007 63.4241 98.6047 61.4148 98.6047 58.9361C98.6047 56.4574 96.6007 54.448 94.1285 54.448C91.6564 54.448 89.6523 56.4574 89.6523 58.9361C89.6523 61.4148 91.6564 63.4241 94.1285 63.4241Z" fill="#F6DECD"/>
<path d="M112.034 63.4241C114.506 63.4241 116.51 61.4148 116.51 58.9361C116.51 56.4574 114.506 54.448 112.034 54.448C109.562 54.448 107.558 56.4574 107.558 58.9361C107.558 61.4148 109.562 63.4241 112.034 63.4241Z" fill="#F6DECD"/>
<path d="M4.60511 81.3765C7.07724 81.3765 9.08131 79.3672 9.08131 76.8885C9.08131 74.4098 7.07724 72.4004 4.60511 72.4004C2.13297 72.4004 0.128906 74.4098 0.128906 76.8885C0.128906 79.3672 2.13297 81.3765 4.60511 81.3765Z" fill="#F6DECD"/>
<path d="M22.5094 81.3765C24.9815 81.3765 26.9856 79.3672 26.9856 76.8885C26.9856 74.4098 24.9815 72.4004 22.5094 72.4004C20.0373 72.4004 18.0332 74.4098 18.0332 76.8885C18.0332 79.3672 20.0373 81.3765 22.5094 81.3765Z" fill="#F6DECD"/>
<path d="M40.4147 81.3765C42.8868 81.3765 44.8909 79.3672 44.8909 76.8885C44.8909 74.4098 42.8868 72.4004 40.4147 72.4004C37.9425 72.4004 35.9385 74.4098 35.9385 76.8885C35.9385 79.3672 37.9425 81.3765 40.4147 81.3765Z" fill="#F6DECD"/>
<path d="M58.319 81.3765C60.7911 81.3765 62.7952 79.3672 62.7952 76.8885C62.7952 74.4098 60.7911 72.4004 58.319 72.4004C55.8468 72.4004 53.8428 74.4098 53.8428 76.8885C53.8428 79.3672 55.8468 81.3765 58.319 81.3765Z" fill="#F6DECD"/>
<path d="M76.2242 81.3765C78.6964 81.3765 80.7005 79.3672 80.7005 76.8885C80.7005 74.4098 78.6964 72.4004 76.2242 72.4004C73.7521 72.4004 71.748 74.4098 71.748 76.8885C71.748 79.3672 73.7521 81.3765 76.2242 81.3765Z" fill="#F6DECD"/>
<path d="M94.1285 81.3765C96.6007 81.3765 98.6047 79.3672 98.6047 76.8885C98.6047 74.4098 96.6007 72.4004 94.1285 72.4004C91.6564 72.4004 89.6523 74.4098 89.6523 76.8885C89.6523 79.3672 91.6564 81.3765 94.1285 81.3765Z" fill="#F6DECD"/>
<path d="M112.034 81.3765C114.506 81.3765 116.51 79.3672 116.51 76.8885C116.51 74.4098 114.506 72.4004 112.034 72.4004C109.562 72.4004 107.558 74.4098 107.558 76.8885C107.558 79.3672 109.562 81.3765 112.034 81.3765Z" fill="#F6DECD"/>
<path d="M4.60511 99.3287C7.07724 99.3287 9.08131 97.3193 9.08131 94.8406C9.08131 92.3619 7.07724 90.3525 4.60511 90.3525C2.13297 90.3525 0.128906 92.3619 0.128906 94.8406C0.128906 97.3193 2.13297 99.3287 4.60511 99.3287Z" fill="#F6DECD"/>
<path d="M22.5094 99.3287C24.9815 99.3287 26.9856 97.3193 26.9856 94.8406C26.9856 92.3619 24.9815 90.3525 22.5094 90.3525C20.0373 90.3525 18.0332 92.3619 18.0332 94.8406C18.0332 97.3193 20.0373 99.3287 22.5094 99.3287Z" fill="#F6DECD"/>
<path d="M40.4147 99.3287C42.8868 99.3287 44.8909 97.3193 44.8909 94.8406C44.8909 92.3619 42.8868 90.3525 40.4147 90.3525C37.9425 90.3525 35.9385 92.3619 35.9385 94.8406C35.9385 97.3193 37.9425 99.3287 40.4147 99.3287Z" fill="#F6DECD"/>
<path d="M58.319 99.3287C60.7911 99.3287 62.7952 97.3193 62.7952 94.8406C62.7952 92.3619 60.7911 90.3525 58.319 90.3525C55.8468 90.3525 53.8428 92.3619 53.8428 94.8406C53.8428 97.3193 55.8468 99.3287 58.319 99.3287Z" fill="#F6DECD"/>
<path d="M76.2242 99.3287C78.6964 99.3287 80.7005 97.3193 80.7005 94.8406C80.7005 92.3619 78.6964 90.3525 76.2242 90.3525C73.7521 90.3525 71.748 92.3619 71.748 94.8406C71.748 97.3193 73.7521 99.3287 76.2242 99.3287Z" fill="#F6DECD"/>
<path d="M94.1285 99.3287C96.6007 99.3287 98.6047 97.3193 98.6047 94.8406C98.6047 92.3619 96.6007 90.3525 94.1285 90.3525C91.6564 90.3525 89.6523 92.3619 89.6523 94.8406C89.6523 97.3193 91.6564 99.3287 94.1285 99.3287Z" fill="#F6DECD"/>
<path d="M112.034 99.3287C114.506 99.3287 116.51 97.3193 116.51 94.8406C116.51 92.3619 114.506 90.3525 112.034 90.3525C109.562 90.3525 107.558 92.3619 107.558 94.8406C107.558 97.3193 109.562 99.3287 112.034 99.3287Z" fill="#F6DECD"/>
<path d="M4.60511 117.281C7.07724 117.281 9.08131 115.271 9.08131 112.793C9.08131 110.314 7.07724 108.305 4.60511 108.305C2.13297 108.305 0.128906 110.314 0.128906 112.793C0.128906 115.271 2.13297 117.281 4.60511 117.281Z" fill="#F6DECD"/>
<path d="M22.5094 117.281C24.9815 117.281 26.9856 115.271 26.9856 112.793C26.9856 110.314 24.9815 108.305 22.5094 108.305C20.0373 108.305 18.0332 110.314 18.0332 112.793C18.0332 115.271 20.0373 117.281 22.5094 117.281Z" fill="#F6DECD"/>
<path d="M40.4147 117.281C42.8868 117.281 44.8909 115.271 44.8909 112.793C44.8909 110.314 42.8868 108.305 40.4147 108.305C37.9425 108.305 35.9385 110.314 35.9385 112.793C35.9385 115.271 37.9425 117.281 40.4147 117.281Z" fill="#F6DECD"/>
<path d="M58.319 117.281C60.7911 117.281 62.7952 115.271 62.7952 112.793C62.7952 110.314 60.7911 108.305 58.319 108.305C55.8468 108.305 53.8428 110.314 53.8428 112.793C53.8428 115.271 55.8468 117.281 58.319 117.281Z" fill="#F6DECD"/>
<path d="M76.2242 117.281C78.6964 117.281 80.7005 115.271 80.7005 112.793C80.7005 110.314 78.6964 108.305 76.2242 108.305C73.7521 108.305 71.748 110.314 71.748 112.793C71.748 115.271 73.7521 117.281 76.2242 117.281Z" fill="#F6DECD"/>
<path d="M94.1285 117.281C96.6007 117.281 98.6047 115.271 98.6047 112.793C98.6047 110.314 96.6007 108.305 94.1285 108.305C91.6564 108.305 89.6523 110.314 89.6523 112.793C89.6523 115.271 91.6564 117.281 94.1285 117.281Z" fill="#F6DECD"/>
<path d="M112.034 117.281C114.506 117.281 116.51 115.271 116.51 112.793C116.51 110.314 114.506 108.305 112.034 108.305C109.562 108.305 107.558 110.314 107.558 112.793C107.558 115.271 109.562 117.281 112.034 117.281Z" fill="#F6DECD"/>
<path d="M4.60511 135.233C7.07724 135.233 9.08131 133.224 9.08131 130.745C9.08131 128.267 7.07724 126.257 4.60511 126.257C2.13297 126.257 0.128906 128.267 0.128906 130.745C0.128906 133.224 2.13297 135.233 4.60511 135.233Z" fill="#F6DECD"/>
<path d="M22.5094 135.233C24.9815 135.233 26.9856 133.224 26.9856 130.745C26.9856 128.267 24.9815 126.257 22.5094 126.257C20.0373 126.257 18.0332 128.267 18.0332 130.745C18.0332 133.224 20.0373 135.233 22.5094 135.233Z" fill="#F6DECD"/>
<path d="M40.4147 135.233C42.8868 135.233 44.8909 133.224 44.8909 130.745C44.8909 128.267 42.8868 126.257 40.4147 126.257C37.9425 126.257 35.9385 128.267 35.9385 130.745C35.9385 133.224 37.9425 135.233 40.4147 135.233Z" fill="#F6DECD"/>
<path d="M58.319 135.233C60.7911 135.233 62.7952 133.224 62.7952 130.745C62.7952 128.267 60.7911 126.257 58.319 126.257C55.8468 126.257 53.8428 128.267 53.8428 130.745C53.8428 133.224 55.8468 135.233 58.319 135.233Z" fill="#F6DECD"/>
<path d="M76.2242 135.233C78.6964 135.233 80.7005 133.224 80.7005 130.745C80.7005 128.267 78.6964 126.257 76.2242 126.257C73.7521 126.257 71.748 128.267 71.748 130.745C71.748 133.224 73.7521 135.233 76.2242 135.233Z" fill="#F6DECD"/>
<path d="M94.1285 135.233C96.6007 135.233 98.6047 133.224 98.6047 130.745C98.6047 128.267 96.6007 126.257 94.1285 126.257C91.6564 126.257 89.6523 128.267 89.6523 130.745C89.6523 133.224 91.6564 135.233 94.1285 135.233Z" fill="#F6DECD"/>
<path d="M112.034 135.233C114.506 135.233 116.51 133.224 116.51 130.745C116.51 128.267 114.506 126.257 112.034 126.257C109.562 126.257 107.558 128.267 107.558 130.745C107.558 133.224 109.562 135.233 112.034 135.233Z" fill="#F6DECD"/>
<path d="M4.60511 153.185C7.07724 153.185 9.08131 151.176 9.08131 148.697C9.08131 146.218 7.07724 144.209 4.60511 144.209C2.13297 144.209 0.128906 146.218 0.128906 148.697C0.128906 151.176 2.13297 153.185 4.60511 153.185Z" fill="#F6DECD"/>
<path d="M22.5094 153.185C24.9815 153.185 26.9856 151.176 26.9856 148.697C26.9856 146.218 24.9815 144.209 22.5094 144.209C20.0373 144.209 18.0332 146.218 18.0332 148.697C18.0332 151.176 20.0373 153.185 22.5094 153.185Z" fill="#F6DECD"/>
<path d="M40.4147 153.185C42.8868 153.185 44.8909 151.176 44.8909 148.697C44.8909 146.218 42.8868 144.209 40.4147 144.209C37.9425 144.209 35.9385 146.218 35.9385 148.697C35.9385 151.176 37.9425 153.185 40.4147 153.185Z" fill="#F6DECD"/>
<path d="M58.319 153.185C60.7911 153.185 62.7952 151.176 62.7952 148.697C62.7952 146.218 60.7911 144.209 58.319 144.209C55.8468 144.209 53.8428 146.218 53.8428 148.697C53.8428 151.176 55.8468 153.185 58.319 153.185Z" fill="#F6DECD"/>
<path d="M76.2242 153.185C78.6964 153.185 80.7005 151.176 80.7005 148.697C80.7005 146.218 78.6964 144.209 76.2242 144.209C73.7521 144.209 71.748 146.218 71.748 148.697C71.748 151.176 73.7521 153.185 76.2242 153.185Z" fill="#F6DECD"/>
<path d="M94.1285 153.185C96.6007 153.185 98.6047 151.176 98.6047 148.697C98.6047 146.218 96.6007 144.209 94.1285 144.209C91.6564 144.209 89.6523 146.218 89.6523 148.697C89.6523 151.176 91.6564 153.185 94.1285 153.185Z" fill="#F6DECD"/>
<path d="M112.034 153.185C114.506 153.185 116.51 151.176 116.51 148.697C116.51 146.218 114.506 144.209 112.034 144.209C109.562 144.209 107.558 146.218 107.558 148.697C107.558 151.176 109.562 153.185 112.034 153.185Z" fill="#F6DECD"/>
<path d="M4.60511 171.138C7.07724 171.138 9.08131 169.129 9.08131 166.65C9.08131 164.171 7.07724 162.162 4.60511 162.162C2.13297 162.162 0.128906 164.171 0.128906 166.65C0.128906 169.129 2.13297 171.138 4.60511 171.138Z" fill="#F6DECD"/>
<path d="M22.5094 171.138C24.9815 171.138 26.9856 169.129 26.9856 166.65C26.9856 164.171 24.9815 162.162 22.5094 162.162C20.0373 162.162 18.0332 164.171 18.0332 166.65C18.0332 169.129 20.0373 171.138 22.5094 171.138Z" fill="#F6DECD"/>
<path d="M40.4147 171.138C42.8868 171.138 44.8909 169.129 44.8909 166.65C44.8909 164.171 42.8868 162.162 40.4147 162.162C37.9425 162.162 35.9385 164.171 35.9385 166.65C35.9385 169.129 37.9425 171.138 40.4147 171.138Z" fill="#F6DECD"/>
<path d="M58.319 171.138C60.7911 171.138 62.7952 169.129 62.7952 166.65C62.7952 164.171 60.7911 162.162 58.319 162.162C55.8468 162.162 53.8428 164.171 53.8428 166.65C53.8428 169.129 55.8468 171.138 58.319 171.138Z" fill="#F6DECD"/>
<path d="M76.2242 171.138C78.6964 171.138 80.7005 169.129 80.7005 166.65C80.7005 164.171 78.6964 162.162 76.2242 162.162C73.7521 162.162 71.748 164.171 71.748 166.65C71.748 169.129 73.7521 171.138 76.2242 171.138Z" fill="#F6DECD"/>
<path d="M94.1285 171.138C96.6007 171.138 98.6047 169.129 98.6047 166.65C98.6047 164.171 96.6007 162.162 94.1285 162.162C91.6564 162.162 89.6523 164.171 89.6523 166.65C89.6523 169.129 91.6564 171.138 94.1285 171.138Z" fill="#F6DECD"/>
<path d="M112.034 171.138C114.506 171.138 116.51 169.129 116.51 166.65C116.51 164.171 114.506 162.162 112.034 162.162C109.562 162.162 107.558 164.171 107.558 166.65C107.558 169.129 109.562 171.138 112.034 171.138Z" fill="#F6DECD"/>
<path d="M4.60511 189.091C7.07724 189.091 9.08131 187.081 9.08131 184.602C9.08131 182.124 7.07724 180.114 4.60511 180.114C2.13297 180.114 0.128906 182.124 0.128906 184.602C0.128906 187.081 2.13297 189.091 4.60511 189.091Z" fill="#F6DECD"/>
<path d="M22.5094 189.091C24.9815 189.091 26.9856 187.081 26.9856 184.602C26.9856 182.124 24.9815 180.114 22.5094 180.114C20.0373 180.114 18.0332 182.124 18.0332 184.602C18.0332 187.081 20.0373 189.091 22.5094 189.091Z" fill="#F6DECD"/>
<path d="M40.4147 189.091C42.8868 189.091 44.8909 187.081 44.8909 184.602C44.8909 182.124 42.8868 180.114 40.4147 180.114C37.9425 180.114 35.9385 182.124 35.9385 184.602C35.9385 187.081 37.9425 189.091 40.4147 189.091Z" fill="#F6DECD"/>
<path d="M58.319 189.091C60.7911 189.091 62.7952 187.081 62.7952 184.602C62.7952 182.124 60.7911 180.114 58.319 180.114C55.8468 180.114 53.8428 182.124 53.8428 184.602C53.8428 187.081 55.8468 189.091 58.319 189.091Z" fill="#F6DECD"/>
<path d="M76.2242 189.091C78.6964 189.091 80.7005 187.081 80.7005 184.602C80.7005 182.124 78.6964 180.114 76.2242 180.114C73.7521 180.114 71.748 182.124 71.748 184.602C71.748 187.081 73.7521 189.091 76.2242 189.091Z" fill="#F6DECD"/>
<path d="M94.1285 189.091C96.6007 189.091 98.6047 187.081 98.6047 184.602C98.6047 182.124 96.6007 180.114 94.1285 180.114C91.6564 180.114 89.6523 182.124 89.6523 184.602C89.6523 187.081 91.6564 189.091 94.1285 189.091Z" fill="#F6DECD"/>
<path d="M112.034 189.091C114.506 189.091 116.51 187.081 116.51 184.602C116.51 182.124 114.506 180.114 112.034 180.114C109.562 180.114 107.558 182.124 107.558 184.602C107.558 187.081 109.562 189.091 112.034 189.091Z" fill="#F6DECD"/>
<path d="M4.60511 207.042C7.07724 207.042 9.08131 205.033 9.08131 202.554C9.08131 200.075 7.07724 198.066 4.60511 198.066C2.13297 198.066 0.128906 200.075 0.128906 202.554C0.128906 205.033 2.13297 207.042 4.60511 207.042Z" fill="#F6DECD"/>
<path d="M22.5094 207.042C24.9815 207.042 26.9856 205.033 26.9856 202.554C26.9856 200.075 24.9815 198.066 22.5094 198.066C20.0373 198.066 18.0332 200.075 18.0332 202.554C18.0332 205.033 20.0373 207.042 22.5094 207.042Z" fill="#F6DECD"/>
<path d="M40.4147 207.042C42.8868 207.042 44.8909 205.033 44.8909 202.554C44.8909 200.075 42.8868 198.066 40.4147 198.066C37.9425 198.066 35.9385 200.075 35.9385 202.554C35.9385 205.033 37.9425 207.042 40.4147 207.042Z" fill="#F6DECD"/>
<path d="M58.319 207.042C60.7911 207.042 62.7952 205.033 62.7952 202.554C62.7952 200.075 60.7911 198.066 58.319 198.066C55.8468 198.066 53.8428 200.075 53.8428 202.554C53.8428 205.033 55.8468 207.042 58.319 207.042Z" fill="#F6DECD"/>
<path d="M76.2242 207.042C78.6964 207.042 80.7005 205.033 80.7005 202.554C80.7005 200.075 78.6964 198.066 76.2242 198.066C73.7521 198.066 71.748 200.075 71.748 202.554C71.748 205.033 73.7521 207.042 76.2242 207.042Z" fill="#F6DECD"/>
<path d="M94.1285 207.042C96.6007 207.042 98.6047 205.033 98.6047 202.554C98.6047 200.075 96.6007 198.066 94.1285 198.066C91.6564 198.066 89.6523 200.075 89.6523 202.554C89.6523 205.033 91.6564 207.042 94.1285 207.042Z" fill="#F6DECD"/>
<path d="M112.034 207.042C114.506 207.042 116.51 205.033 116.51 202.554C116.51 200.075 114.506 198.066 112.034 198.066C109.562 198.066 107.558 200.075 107.558 202.554C107.558 205.033 109.562 207.042 112.034 207.042Z" fill="#F6DECD"/>
<path d="M4.60511 224.995C7.07724 224.995 9.08131 222.985 9.08131 220.507C9.08131 218.028 7.07724 216.019 4.60511 216.019C2.13297 216.019 0.128906 218.028 0.128906 220.507C0.128906 222.985 2.13297 224.995 4.60511 224.995Z" fill="#F6DECD"/>
<path d="M22.5094 224.995C24.9815 224.995 26.9856 222.985 26.9856 220.507C26.9856 218.028 24.9815 216.019 22.5094 216.019C20.0373 216.019 18.0332 218.028 18.0332 220.507C18.0332 222.985 20.0373 224.995 22.5094 224.995Z" fill="#F6DECD"/>
<path d="M40.4147 224.995C42.8868 224.995 44.8909 222.985 44.8909 220.507C44.8909 218.028 42.8868 216.019 40.4147 216.019C37.9425 216.019 35.9385 218.028 35.9385 220.507C35.9385 222.985 37.9425 224.995 40.4147 224.995Z" fill="#F6DECD"/>
<path d="M58.319 224.995C60.7911 224.995 62.7952 222.985 62.7952 220.507C62.7952 218.028 60.7911 216.019 58.319 216.019C55.8468 216.019 53.8428 218.028 53.8428 220.507C53.8428 222.985 55.8468 224.995 58.319 224.995Z" fill="#F6DECD"/>
<path d="M76.2242 224.995C78.6964 224.995 80.7005 222.985 80.7005 220.507C80.7005 218.028 78.6964 216.019 76.2242 216.019C73.7521 216.019 71.748 218.028 71.748 220.507C71.748 222.985 73.7521 224.995 76.2242 224.995Z" fill="#F6DECD"/>
<path d="M94.1285 224.995C96.6007 224.995 98.6047 222.985 98.6047 220.507C98.6047 218.028 96.6007 216.019 94.1285 216.019C91.6564 216.019 89.6523 218.028 89.6523 220.507C89.6523 222.985 91.6564 224.995 94.1285 224.995Z" fill="#F6DECD"/>
<path d="M112.034 224.995C114.506 224.995 116.51 222.985 116.51 220.507C116.51 218.028 114.506 216.019 112.034 216.019C109.562 216.019 107.558 218.028 107.558 220.507C107.558 222.985 109.562 224.995 112.034 224.995Z" fill="#F6DECD"/>
<path d="M4.60511 242.948C7.07724 242.948 9.08131 240.938 9.08131 238.459C9.08131 235.981 7.07724 233.971 4.60511 233.971C2.13297 233.971 0.128906 235.981 0.128906 238.459C0.128906 240.938 2.13297 242.948 4.60511 242.948Z" fill="#F6DECD"/>
<path d="M22.5094 242.948C24.9815 242.948 26.9856 240.938 26.9856 238.459C26.9856 235.981 24.9815 233.971 22.5094 233.971C20.0373 233.971 18.0332 235.981 18.0332 238.459C18.0332 240.938 20.0373 242.948 22.5094 242.948Z" fill="#F6DECD"/>
<path d="M40.4147 242.948C42.8868 242.948 44.8909 240.938 44.8909 238.459C44.8909 235.981 42.8868 233.971 40.4147 233.971C37.9425 233.971 35.9385 235.981 35.9385 238.459C35.9385 240.938 37.9425 242.948 40.4147 242.948Z" fill="#F6DECD"/>
<path d="M58.319 242.948C60.7911 242.948 62.7952 240.938 62.7952 238.459C62.7952 235.981 60.7911 233.971 58.319 233.971C55.8468 233.971 53.8428 235.981 53.8428 238.459C53.8428 240.938 55.8468 242.948 58.319 242.948Z" fill="#F6DECD"/>
<path d="M76.2242 242.948C78.6964 242.948 80.7005 240.938 80.7005 238.459C80.7005 235.981 78.6964 233.971 76.2242 233.971C73.7521 233.971 71.748 235.981 71.748 238.459C71.748 240.938 73.7521 242.948 76.2242 242.948Z" fill="#F6DECD"/>
<path d="M94.1276 242.948C96.5997 242.948 98.6038 240.938 98.6038 238.459C98.6038 235.981 96.5997 233.971 94.1276 233.971C91.6554 233.971 89.6514 235.981 89.6514 238.459C89.6514 240.938 91.6554 242.948 94.1276 242.948Z" fill="#F6DECD"/>
<path d="M112.034 242.948C114.506 242.948 116.51 240.938 116.51 238.459C116.51 235.981 114.506 233.971 112.034 233.971C109.562 233.971 107.558 235.981 107.558 238.459C107.558 240.938 109.562 242.948 112.034 242.948Z" fill="#F6DECD"/>
</g>
<defs>
<clipPath id="clip0_217_1278">
<rect width="117" height="243" fill="white"/>
</clipPath>
</defs>
</svg>
