<svg width="32" height="18" viewBox="0 0 32 18" fill="none" xmlns="http://www.w3.org/2000/svg">
<path d="M25.3607 3.09015H22.9321C22.6516 3.09015 22.424 3.31764 22.424 3.59823C22.424 3.87882 22.6516 4.10627 22.9321 4.10627H25.3505V5.82355H19.1368C18.8562 5.82355 18.6287 6.05104 18.6287 6.33163C18.6287 6.61222 18.8562 6.83971 19.1368 6.83971H25.3403V8.57736H21.8448C21.5643 8.57776 21.3371 8.80556 21.3374 9.08611C21.3379 9.36616 21.5648 9.59313 21.8448 9.59348H25.3302V14.2627H22.1853C21.9026 12.777 20.4689 11.8017 18.9831 12.0843C17.8787 12.2945 17.0149 13.1583 16.8047 14.2627L10.1286 14.2322L10.1642 1.53042L25.3606 1.56601L25.3607 3.09015ZM19.4975 16.4932C18.5435 16.4932 17.7701 15.7197 17.7701 14.7657C17.7701 13.8117 18.5435 13.0383 19.4975 13.0383C20.4516 13.0383 21.225 13.8117 21.225 14.7657C21.225 15.7197 20.4515 16.4932 19.4975 16.4932ZM8.1319 14.2576C7.84921 12.7718 6.41551 11.7965 4.92974 12.0793C3.82533 12.2894 2.96152 13.1532 2.75138 14.2576H1.77589V9.5884H9.10739V14.2576H8.1319ZM5.44422 16.4932C4.4902 16.4932 3.71677 15.7197 3.71677 14.7657C3.71677 13.8117 4.49016 13.0383 5.44422 13.0383C6.39829 13.0383 7.17164 13.8117 7.17164 14.7657C7.17164 15.7197 6.39825 16.4932 5.44422 16.4932ZM5.30705 5.75247H9.10743V8.57227H3.68121L5.30705 5.75247ZM30.7362 3.06982H26.3718V1.54562C26.3718 0.964743 25.901 0.493896 25.3201 0.493896H10.1592C9.57828 0.493896 9.10743 0.964743 9.10743 1.54562V4.71598H5.01235C4.83009 4.71531 4.66143 4.8122 4.57034 4.97001L2.50754 8.5723H1.26785C0.987256 8.5723 0.759766 8.79979 0.759766 9.08033V14.7708C0.759766 15.0513 0.987256 15.2788 1.26785 15.2788H2.75142C3.03411 16.7646 4.46777 17.7399 5.95358 17.4572C7.05799 17.2471 7.9218 16.3833 8.13194 15.2788H9.61551C9.6916 15.2768 9.7663 15.2577 9.83398 15.223C9.93705 15.2587 10.0451 15.2775 10.1541 15.2788H16.7997C17.0824 16.7646 18.5161 17.7399 20.0019 17.4572C21.1063 17.2471 21.9701 16.3833 22.1803 15.2788H25.3202C25.9011 15.2788 26.3719 14.808 26.3719 14.2271V9.5884H29.654C29.9346 9.5884 30.1622 9.36091 30.1622 9.08031C30.1622 8.79972 29.9347 8.57227 29.654 8.57227H26.3718V6.83467H26.9459C27.2265 6.83467 27.454 6.60722 27.454 6.32659C27.454 6.046 27.2265 5.8185 26.9459 5.8185H26.3718V4.08594H30.7362C31.0167 4.08594 31.2442 3.85845 31.2442 3.57786C31.2442 3.29731 31.0167 3.06982 30.7362 3.06982Z" fill="#FD6400"/>
</svg>
