<svg width="21" height="21" viewBox="0 0 21 21" fill="none" xmlns="http://www.w3.org/2000/svg">
<path d="M20.9967 4.29528V4.25953C20.987 4.23434 20.9748 4.20997 20.961 4.18722L20.9342 4.15147L20.8797 4.09297L20.8481 4.06616L20.7887 4.03853H20.766L10.9681 0.0329062C10.8592 -0.0109688 10.7381 -0.0109688 10.6301 0.0329062L0.74275 4.02472L0.688313 4.08322L0.6615 4.11978C0.646875 4.14253 0.634687 4.16609 0.624938 4.19128V4.22703C0.620062 4.26441 0.620062 4.30259 0.624938 4.33997V7.94909H-4.54906C-4.79769 7.94909 -5 8.15141 -5 8.40003C-5 8.64947 -4.79769 8.85097 -4.54906 8.85097V8.90947H0.5705V10.4524H-1.1845C-1.43394 10.4524 -1.63544 10.6547 -1.63544 10.9033C-1.63544 11.152 -1.43313 11.3551 -1.18369 11.3551H0.571312V12.898H-3.58788C-3.83731 12.898 -4.03881 13.1003 -4.03881 13.349C-4.03881 13.5984 -3.8365 13.7999 -3.58788 13.7999H0.571312V15.6857C0.572125 15.8677 0.682625 16.0318 0.850813 16.1009L10.6309 20.161C10.6796 20.1805 10.7316 20.191 10.7844 20.1927C10.8372 20.191 10.8892 20.1805 10.938 20.161L20.7181 16.1009C20.8862 16.0318 20.9967 15.8677 20.9976 15.6857V4.40822C21.0008 4.37084 21.0008 4.33266 20.9967 4.29528ZM10.7974 0.948594L14.5057 2.43303L6.0695 6.00072L2.21256 4.39441L10.7974 0.948594ZM10.3327 19.073L1.47319 15.3835V13.7958H3.34519C3.59462 13.7958 3.79613 13.5935 3.79613 13.3449C3.79613 13.0955 3.59381 12.894 3.34519 12.894H1.47319V11.351H5.75831C6.00775 11.351 6.20925 11.1487 6.20925 10.9001C6.20925 10.6507 6.00694 10.4492 5.75831 10.4492H1.47319V8.91109H2.37506C2.6245 8.91109 2.826 8.70878 2.826 8.46016C2.826 8.21072 2.62369 8.00922 2.37506 8.00922H1.47319V5.06634L4.91981 6.49147L10.3327 8.74697V19.073ZM10.8015 7.98566L7.23787 6.49228L15.6822 2.91078L19.3766 4.39928L10.8015 7.98566ZM11.2484 19.073V8.74778L13.7882 7.69234L20.1038 5.05822L20.1266 15.3835L11.2484 19.073Z" fill="#FD6400"/>
</svg>
