<svg width="22" height="22" viewBox="0 0 22 22" fill="none" xmlns="http://www.w3.org/2000/svg">
<path d="M19.9561 13.5336H14.2114C13.8369 13.5336 13.5332 13.8372 13.5332 14.2118V19.9559H8.46665V14.2118C8.46665 13.8372 8.16301 13.5336 7.78845 13.5336H2.04389V8.46669H7.78845C8.16301 8.46669 8.46665 8.1631 8.46665 7.78849V2.04394H13.5331V7.78849C13.5331 8.1631 13.8368 8.46669 14.2113 8.46669H19.956V13.5336H19.9561ZM20.6343 7.11025H14.8896V1.3657C14.8896 0.991139 14.586 0.6875 14.2114 0.6875H7.78845C7.41389 0.6875 7.11025 0.991139 7.11025 1.3657V7.11025H1.3657C0.991139 7.11025 0.6875 7.41389 0.6875 7.78845V14.2118C0.6875 14.5864 0.991139 14.89 1.3657 14.89H7.11025V20.6342C7.11025 21.0087 7.41394 21.3123 7.78845 21.3123H14.2113C14.5859 21.3123 14.8895 21.0087 14.8895 20.6342V14.89H20.6342C21.0088 14.89 21.3124 14.5864 21.3124 14.2118V7.78849C21.3125 7.41394 21.0089 7.11025 20.6343 7.11025Z" fill="#FD6400"/>
</svg>
