<svg width="22" height="22" viewBox="0 0 22 22" fill="none" xmlns="http://www.w3.org/2000/svg">
<path d="M5.04024 6.772C2.58024 7.329 1.35024 7.607 1.05723 8.548C0.765235 9.488 1.60324 10.469 3.28024 12.43L3.71424 12.937C4.19024 13.494 4.42923 13.773 4.53623 14.117C4.64323 14.462 4.60723 14.834 4.53523 15.577L4.46923 16.254C4.21623 18.871 4.08924 20.179 4.85524 20.76C5.62124 21.341 6.77323 20.811 9.07523 19.751L9.67223 19.477C10.3262 19.175 10.6532 19.025 11.0002 19.025C11.3472 19.025 11.6742 19.175 12.3292 19.477L12.9242 19.751C15.2272 20.811 16.3792 21.341 17.1442 20.761C17.9112 20.179 17.7842 18.871 17.5312 16.254M18.7202 12.43C20.3972 10.47 21.2352 9.489 20.9432 8.548C20.6512 7.607 19.4202 7.328 16.9602 6.772L16.3242 6.628C15.6252 6.47 15.2762 6.391 14.9952 6.178C14.7142 5.965 14.5352 5.642 14.1752 4.996L13.8472 4.408C12.5802 2.136 11.9472 1 11.0002 1C10.0532 1 9.42023 2.136 8.15323 4.408" stroke="#FD6400" stroke-width="1.5" stroke-linecap="round"/>
</svg>
